<?xml version="1.0" encoding="iso-8859-1"?>
<!-- Uploaded to: SVG Repo, www.svgrepo.com, Generator: SVG Repo Mixer Tools -->
<svg height="800px" width="800px" version="1.1" id="Layer_1" xmlns="http://www.w3.org/2000/svg" xmlns:xlink="http://www.w3.org/1999/xlink" 
	 viewBox="0 0 512.001 512.001" xml:space="preserve">
<path style="fill:#2C6991;" d="M53.772,436.019c-9.684,0-17.534-7.851-17.534-17.534v-29.224c0-9.684,7.851-17.534,17.534-17.534
	s17.534,7.851,17.534,17.534v29.224C71.306,428.168,63.455,436.019,53.772,436.019z"/>
<path style="fill:#528FB3;" d="M53.772,436.019c-9.352,0-17.534-7.851-17.534-17.534v-29.224c0-9.684,8.183-17.534,17.534-17.534
	V436.019z"/>
<path style="fill:#2C6991;" d="M457.059,436.019c-9.684,0-17.534-7.851-17.534-17.534v-29.224c0-9.684,7.851-17.534,17.534-17.534
	c9.684,0,17.534,7.851,17.534,17.534v29.224C474.594,428.168,466.743,436.019,457.059,436.019z"/>
<path style="fill:#528FB3;" d="M457.059,436.019c-9.352,0-17.534-7.851-17.534-17.534v-29.224c0-9.684,8.183-17.534,17.534-17.534
	V436.019z"/>
<path style="fill:#2C6991;" d="M401.916,75.982H110.083c-29.761,0-53.974,23.788-53.974,53.027v55.685
	c0,9.684,7.851,17.534,17.534,17.534h364.712c9.684,0,17.534-7.851,17.534-17.534v-55.685
	C455.89,99.77,431.678,75.982,401.916,75.982z"/>
<path style="fill:#528FB3;" d="M261.845,75.982H110.083c-29.761,0-53.974,23.788-53.974,53.027v55.685
	c0,9.684,7.851,17.534,17.534,17.534h188.201V75.982z"/>
<path style="fill:#FB5858;" d="M487.722,227.469l-32.787-48.441c-2.358-6.899-8.882-11.867-16.579-11.867H86.502
	c-2.464,0-4.807,0.513-6.933,1.431c-7.269-2.417-15.539,0.145-20.044,6.801L24.278,227.47c-5.427,8.02-3.327,18.922,4.693,24.349
	c3.012,2.039,6.429,2.776,9.812,2.776c5.624,0,11.148-2.102,14.537-7.947h405.36c3.39,5.845,8.913,7.947,14.537,7.947
	c3.382,0,6.8-0.858,9.812-2.895C491.049,246.271,493.151,235.489,487.722,227.469z"/>
<path style="fill:#FF835D;" d="M261.845,167.16H86.502c-2.464,0-4.807,0.513-6.933,1.431c-7.269-2.417-15.539,0.145-20.044,6.801
	L24.278,227.47c-5.427,8.02-3.327,18.922,4.693,24.349c3.012,2.039,6.429,2.776,9.812,2.776c5.624,0,11.148-2.102,14.537-7.947
	h208.524V167.16z"/>
<path style="fill:#2C6991;" d="M494.566,208.139c-9.684,0-17.434,8.117-17.434,17.469H34.869c0-9.352-7.75-17.469-17.434-17.469
	C7.75,208.139,0,216.056,0,225.74v155.883c0,9.684,7.65,16.99,17.334,16.99h477.332c9.684,0,17.334-7.306,17.334-16.99V225.74
	C512,216.056,504.25,208.139,494.566,208.139z"/>
<path style="fill:#528FB3;" d="M261.845,225.608H34.869c0-9.352-7.75-17.469-17.434-17.469C7.75,208.139,0,216.056,0,225.74v155.883
	c0,9.684,7.65,16.99,17.334,16.99h244.51V225.608z"/>
<path style="fill:#C44545;" d="M388.091,182.357H123.909c-9.684,0-17.534-7.851-17.534-17.534c0-9.684,7.851-17.534,17.534-17.534
	h264.183c9.684,0,17.534,7.851,17.534,17.534C405.626,174.506,397.775,182.357,388.091,182.357z"/>
<path style="fill:#FB5858;" d="M261.845,182.357H123.909c-9.684,0-17.534-7.851-17.534-17.534c0-9.684,7.851-17.534,17.534-17.534
	h137.936V182.357z"/>
</svg>