<?xml version="1.0" encoding="iso-8859-1"?>
<!-- Uploaded to: SVG Repo, www.svgrepo.com, Generator: SVG Repo Mixer Tools -->
<svg version="1.1" id="Layer_1" xmlns="http://www.w3.org/2000/svg" xmlns:xlink="http://www.w3.org/1999/xlink" 
	 viewBox="0 0 512 512" xml:space="preserve">
<path style="fill:#B3D8F4;" d="M216.817,392.526c-15.094,12.091-24.465,31.025-23.433,52.099
	c1.569,32.041,27.612,57.998,59.658,59.47c35.973,1.653,65.651-27.017,65.651-62.626c0-19.801-9.174-37.46-23.51-48.943V47.02
	c0-21.641-17.543-39.184-39.184-39.184l0,0c-21.641,0-39.184,17.543-39.184,39.184v345.505H216.817z"/>
<circle style="fill:#3D9AE2;" cx="256" cy="441.468" r="20.898"/>
<path d="M300.084,386.41l-9.799,12.233c13.075,10.472,20.573,26.082,20.573,42.826c0,15.132-6.028,29.224-16.973,39.677
	c-10.938,10.448-25.309,15.82-40.482,15.121c-27.899-1.282-50.824-24.134-52.19-52.025c-0.875-17.841,6.6-34.461,20.505-45.599
	l2.937-2.352V47.02c0-17.285,14.062-31.347,31.347-31.347s31.347,14.062,31.347,31.347v322.873h15.673V47.02
	c0-25.927-21.093-47.02-47.02-47.02s-47.02,21.093-47.02,47.02v341.878c-15.764,14.121-24.467,34.813-23.423,56.11
	c1.758,35.873,31.242,65.265,67.126,66.914c1.124,0.051,2.242,0.077,3.359,0.077c18.242,0,35.415-6.862,48.668-19.521
	c14.072-13.439,21.821-31.556,21.821-51.011C326.53,419.94,316.891,399.872,300.084,386.41z"/>
<rect x="248.163" y="91.428" width="15.673" height="255.999"/>
<rect x="321.306" y="80.791" width="64.784" height="15.673"/>
<rect x="321.306" y="148.323" width="64.784" height="15.673"/>
<rect x="321.306" y="215.855" width="64.784" height="15.673"/>
<rect x="321.306" y="283.386" width="64.784" height="15.673"/>
<rect x="321.306" y="350.918" width="64.784" height="15.673"/>
<rect x="321.306" y="114.552" width="47.02" height="15.673"/>
<rect x="321.306" y="182.084" width="47.02" height="15.673"/>
<rect x="321.306" y="249.626" width="47.02" height="15.673"/>
<rect x="321.306" y="317.157" width="47.02" height="15.673"/>
<polygon points="157.258,88.624 141.585,88.624 141.585,104.297 125.912,104.297 125.912,119.971 141.585,119.971 141.585,135.644 
	157.258,135.644 157.258,119.971 172.932,119.971 172.932,104.297 157.258,104.297 "/>
<rect x="125.91" y="350.918" width="47.02" height="15.673"/>
<g>
	<rect x="248.163" y="54.857" style="fill:#FFFFFF;" width="15.673" height="15.673"/>
	<rect x="248.163" y="368.326" style="fill:#FFFFFF;" width="15.673" height="15.673"/>
</g>
<path d="M227.266,441.468c0,15.845,12.89,28.735,28.735,28.735s28.735-12.89,28.735-28.735c0-15.845-12.89-28.735-28.735-28.735
	S227.266,425.624,227.266,441.468z M256.001,428.407c7.202,0,13.061,5.859,13.061,13.061c0,7.202-5.859,13.061-13.061,13.061
	c-7.202,0-13.061-5.859-13.061-13.061C242.94,434.266,248.799,428.407,256.001,428.407z"/>
</svg>